<?xml version="1.0" encoding="UTF-8"?>
<svg width="388" height="144" enable-background="new 0 0 196.6 72" version="1.1" viewBox="0 0 193.99999 72" xml:space="preserve" xmlns="http://www.w3.org/2000/svg" xmlns:cc="http://creativecommons.org/ns#" xmlns:dc="http://purl.org/dc/elements/1.1/" xmlns:rdf="http://www.w3.org/1999/02/22-rdf-syntax-ns#"><metadata><rdf:RDF><cc:Work rdf:about=""><dc:format>image/svg+xml</dc:format><dc:type rdf:resource="http://purl.org/dc/dcmitype/StillImage"/><dc:title/></cc:Work></rdf:RDF></metadata><path id="XMLID_107_" transform="translate(-7.6294e-6)" d="m99.016 0.12109c-6.6407 0-12.269 4.5019-14.014 10.602-1.5161-3.2353-4.8016-5.502-8.5859-5.502-5.2043 0-9.4824 4.2781-9.4824 9.4824 0 5.2043 4.2781 9.4844 9.4824 9.4844 3.7843 0 7.0698-2.268 8.5859-5.5039 1.7445 6.1001 7.373 10.604 14.014 10.604 6.5916 0 12.191-4.4355 13.98-10.467 1.5441 3.1624 4.789 5.3672 8.5195 5.3672 5.2043 0 9.4844-4.28 9.4844-9.4844 0-5.2043-4.28-9.4824-9.4844-9.4824-3.7306 0-6.9754 2.2034-8.5195 5.3652-1.7891-6.0308-7.3889-10.465-13.98-10.465zm0 5.5664c5.0129 0 9.0176 4.0027 9.0176 9.0156 0 5.0129-4.0046 9.0176-9.0176 9.0176-5.0129 0-9.0156-4.0046-9.0156-9.0176 0-5.0129 4.0027-9.0156 9.0156-9.0156zm-22.6 5.0996c2.1963 0 3.918 1.7197 3.918 3.916s-1.7217 3.918-3.918 3.918-3.916-1.7217-3.916-3.918 1.7197-3.916 3.916-3.916zm45.1 0c2.1963 0 3.918 1.7197 3.918 3.916s-1.7217 3.918-3.918 3.918c-2.1963 0-3.916-1.7217-3.916-3.918s1.7197-3.916 3.916-3.916z" color="#000000" color-rendering="auto" enable-background="accumulate" fill="#0082c9" image-rendering="auto" shape-rendering="auto" solid-color="#000000" style="block-progression:tb;isolation:auto;mix-blend-mode:normal;text-decoration-color:#000000;text-decoration-line:none;text-decoration-style:solid;text-indent:0;text-transform:none;white-space:normal"/><g fill="#231f20"><path id="XMLID_121_" d="m37.67 48.9c5.9 0 9.2 4.2 9.2 10.5 0 0.6-0.5 1.1-1.1 1.1h-15.9c0.1 5.6 4 8.8 8.5 8.8 2.8 0 4.8-1.2 5.8-2 0.6-0.4 1.1-0.3 1.4 0.3l0.3 0.5c0.3 0.5 0.2 1-0.3 1.4-1.2 0.9-3.8 2.4-7.3 2.4-6.5 0-11.5-4.7-11.5-11.5 0.1-7.2 4.9-11.5 10.9-11.5zm6.1 9.4c-0.2-4.6-3-6.9-6.2-6.9-3.7 0-6.9 2.4-7.6 6.9h13.8z"/><path id="XMLID_119_" d="m76.9 52.1v-2.5-5.2c0-0.7 0.4-1.1 1.1-1.1h0.8c0.7 0 1 0.4 1 1.1v5.2h4.5c0.7 0 1.1 0.4 1.1 1.1v0.3c0 0.7-0.4 1-1.1 1h-4.5v11c0 5.1 3.1 5.7 4.8 5.8 0.9 0.1 1.2 0.3 1.2 1.1v0.6c0 0.7-0.3 1-1.2 1-4.8 0-7.7-2.9-7.7-8.1v-11.3z"/><path id="XMLID_117_" d="m99.8 48.9c3.8 0 6.2 1.6 7.3 2.5 0.5 0.4 0.6 0.9 0.1 1.5l-0.3 0.5c-0.4 0.6-0.9 0.6-1.5 0.2-1-0.7-2.9-2-5.5-2-4.8 0-8.6 3.6-8.6 8.9 0 5.2 3.8 8.8 8.6 8.8 3.1 0 5.2-1.4 6.2-2.3 0.6-0.4 1-0.3 1.4 0.3l0.3 0.4c0.3 0.6 0.2 1-0.3 1.5-1.1 0.9-3.8 2.8-7.8 2.8-6.5 0-11.5-4.7-11.5-11.5 0.1-6.8 5.1-11.6 11.6-11.6z"/><path id="XMLID_115_" d="m113.1 41.8c0-0.7-0.4-1.1 0.3-1.1h0.8c0.7 0 1.8 0.4 1.8 1.1v23.9c0 2.8 1.3 3.1 2.3 3.2 0.5 0 0.9 0.3 0.9 1v0.7c0 0.7-0.3 1.1-1.1 1.1-1.8 0-5-0.6-5-5.4v-24.5z"/><path id="XMLID_112_" d="m133.6 48.9c6.4 0 11.6 4.9 11.6 11.4 0 6.6-5.2 11.6-11.6 11.6s-11.6-5-11.6-11.6c0-6.5 5.2-11.4 11.6-11.4zm0 20.4c4.7 0 8.5-3.8 8.5-9 0-5-3.8-8.7-8.5-8.7s-8.6 3.8-8.6 8.7c0.1 5.1 3.9 9 8.6 9z"/><path id="XMLID_109_" d="m183.5 48.9c5.3 0 7.2 4.4 7.2 4.4h0.1s-0.1-0.7-0.1-1.7v-9.9c0-0.7-0.3-1.1 0.4-1.1h0.8c0.7 0 1.8 0.4 1.8 1.1v28.5c0 0.7-0.3 1.1-1 1.1h-0.7c-0.7 0-1.1-0.3-1.1-1v-1.7c0-0.8 0.2-1.4 0.2-1.4h-0.1s-1.9 4.6-7.6 4.6c-5.9 0-9.6-4.7-9.6-11.5-0.2-6.8 3.9-11.4 9.7-11.4zm0.1 20.4c3.7 0 7.1-2.6 7.1-8.9 0-4.5-2.3-8.8-7-8.8-3.9 0-7.1 3.2-7.1 8.8 0.1 5.4 2.9 8.9 7 8.9z"/><path id="XMLID_103_" d="m1 71.4h0.8c0.7 0 1.1-0.4 1.1-1.1v-21.472c0-3.4 3.7-5.8277 7.9-5.8277s7.9 2.4277 7.9 5.8277v21.472c0 0.7 0.4 1.1 1.1 1.1h0.8c0.7 0 1-0.4 1-1.1v-21.6c0-5.7-5.7-8.5-10.9-8.5-5 0-10.7 2.8-10.7 8.5v21.6c0 0.7 0.3 1.1 1 1.1z"/><path id="XMLID_102_" d="m167.9 49.4h-0.8c-0.7 0-1.1 0.4-1.1 1.1v12.1c0 3.4-2.2 6.5-6.5 6.5-4.2 0-6.5-3.1-6.5-6.5v-12.1c0-0.7-0.4-1.1-1.1-1.1h-0.8c-0.7 0-1 0.4-1 1.1v12.9c0 5.7 4.2 8.5 9.4 8.5s9.4-2.8 9.4-8.5v-12.9c0.1-0.7-0.3-1.1-1-1.1z"/><path d="m68.908 49.236c-0.24494 0.0391-0.4801 0.20259-0.70508 0.4707l-4.0469 4.8242-3.0293 3.6094-4.5859-5.4668-2.4883-2.9668c-0.22498-0.26812-0.47975-0.41472-0.74414-0.4375-0.26439-0.02278-0.53852 0.07775-0.80664 0.30273l-0.61328 0.51367c-0.53623 0.44995-0.50854 0.94814-0.05859 1.4844l4.0488 4.8242 3.3574 4-4.916 5.8574c-0.0037 0.0044-0.0061 0.0093-0.0098 0.01367l-2.4805 2.9551c-0.44995 0.53623-0.39953 1.1008 0.13672 1.5508l0.61328 0.51172c0.53623 0.44995 1.0227 0.33701 1.4727-0.19922l4.0469-4.8242 3.0293-3.6094 4.5859 5.4668c3e-3 0.0036 0.0067 0.0062 0.0098 0.0098l2.4805 2.957c0.44995 0.53623 1.0126 0.58474 1.5488 0.13476l0.61328-0.51367c0.53623-0.44995 0.50854-0.94814 0.05859-1.4844l-4.0488-4.8242-3.3574-4 4.916-5.8574c0.0037-0.0044 0.0061-0.0093 0.0098-0.01367l2.4805-2.9551c0.44995-0.53623 0.39953-1.1008-0.13672-1.5508l-0.61328-0.51367c-0.26812-0.22498-0.52264-0.30864-0.76758-0.26953z"/></g></svg>
